name D:\school\WTK\thesis\model\3dpredictsim\Results\MidTarsalJoint\Fal_s1_bCst_PF_Natali2010_ls150_MT_k30_MTP_Mu5_ig24_PFx5.mot
datacolumns 128
datarows 4
range 0.55852287 0.59203424
endheader
time	pelvis_tilt	pelvis_list	pelvis_rotation	pelvis_tx	pelvis_ty	pelvis_tz	hip_flexion_l	hip_adduction_l	hip_rotation_l	hip_flexion_r	hip_adduction_r	hip_rotation_r	knee_angle_l	knee_angle_r	ankle_angle_l	ankle_angle_r	subtalar_angle_l	subtalar_angle_r	tmt_angle_l	tmt_angle_r	mtp_angle_l	mtp_angle_r	lumbar_extension	lumbar_bending	lumbar_rotation	arm_flex_l	arm_add_l	arm_rot_l	arm_flex_r	arm_add_r	arm_rot_r	elbow_flex_l	elbow_flex_r	pro_sup_l	pro_sup_r	glut_med1_l/activation	glut_med2_l/activation	glut_med3_l/activation	glut_min1_l/activation	glut_min2_l/activation	glut_min3_l/activation	semimem_l/activation	semiten_l/activation	bifemlh_l/activation	bifemsh_l/activation	sar_l/activation	add_long_l/activation	add_brev_l/activation	add_mag1_l/activation	add_mag2_l/activation	add_mag3_l/activation	tfl_l/activation	pect_l/activation	grac_l/activation	glut_max1_l/activation	glut_max2_l/activation	glut_max3_l/activation	iliacus_l/activation	psoas_l/activation	quad_fem_l/activation	gem_l/activation	peri_l/activation	rect_fem_l/activation	vas_med_l/activation	vas_int_l/activation	vas_lat_l/activation	med_gas_l/activation	lat_gas_l/activation	soleus_l/activation	tib_post_l/activation	flex_dig_l/activation	flex_hal_l/activation	tib_ant_l/activation	per_brev_l/activation	per_long_l/activation	per_tert_l/activation	ext_dig_l/activation	ext_hal_l/activation	ercspn_l/activation	intobl_l/activation	extobl_l/activation	glut_med1_r/activation	glut_med2_r/activation	glut_med3_r/activation	glut_min1_r/activation	glut_min2_r/activation	glut_min3_r/activation	semimem_r/activation	semiten_r/activation	bifemlh_r/activation	bifemsh_r/activation	sar_r/activation	add_long_r/activation	add_brev_r/activation	add_mag1_r/activation	add_mag2_r/activation	add_mag3_r/activation	tfl_r/activation	pect_r/activation	grac_r/activation	glut_max1_r/activation	glut_max2_r/activation	glut_max3_r/activation	iliacus_r/activation	psoas_r/activation	quad_fem_r/activation	gem_r/activation	peri_r/activation	rect_fem_r/activation	vas_med_r/activation	vas_int_r/activation	vas_lat_r/activation	med_gas_r/activation	lat_gas_r/activation	soleus_r/activation	tib_post_r/activation	flex_dig_r/activation	flex_hal_r/activation	tib_ant_r/activation	per_brev_r/activation	per_long_r/activation	per_tert_r/activation	ext_dig_r/activation	ext_hal_r/activation	ercspn_r/activation	intobl_r/activation	extobl_r/activation	
          0.55852287	         -2.92666725	          2.30224096	         -5.29939698	          0.69815359	          0.91798591	          0.00124465	         27.52048761	          4.07363032	         -1.86433171	        -16.10985012	         -1.06049611	          5.78341092	         -9.44766269	        -10.67730858	          4.22997556	          1.42291334	         -7.19285420	          7.28289516	         -3.04417978	          2.69043644	          8.64989208	          0.44279913	         -1.56809669	         -0.61079458	          2.18288613	         -6.59127540	        -13.45720660	          5.78977810	          4.55151709	        -13.45203880	         16.47525619	         16.54542545	         34.56711992	         86.51662706	         86.51662706	          0.20054183	          0.05000013	          0.05000065	          0.05001529	          0.05000040	          0.05000045	          0.18074662	          0.05001218	          0.07948481	          0.05000050	          0.05000229	          0.09901369	          0.21623279	          0.19548894	          0.15077207	          0.11023397	          0.05000098	          0.05936698	          0.11116808	          0.05000060	          0.10361528	          0.10475193	          0.05853210	          0.05000227	          0.44304788	          0.14394682	          0.14602483	          0.05930951	          0.14046405	          0.13989459	          0.11794847	          0.05725588	          0.05856464	          0.05568186	          0.05000011	          0.05000054	          0.05000062	          0.54136143	          0.38801570	          0.22196353	          0.22086305	          0.29318436	          0.08865874	          0.05000003	          0.11931288	          0.08344936	          0.32213036	          0.08345363	          0.05934655	          0.23548551	          0.15982758	          0.08996239	          0.05000457	          0.05000164	          0.05000138	          0.05000027	          0.08338027	          0.12007101	          0.05930967	          0.05930917	          0.05928826	          0.05931073	          0.26355000	          0.05525628	          0.05000926	          0.05014886	          0.05024830	          0.05929936	          0.32188062	          0.60995453	          0.05052157	          0.05000238	          0.05000075	          0.14839424	          0.13237145	          0.09097523	          0.10655605	          0.23630974	          0.31948821	          0.31328585	          0.23392952	          0.34950174	          0.41019285	          0.05000008	          0.06416651	          0.20053299	          0.05000033	          0.05000013	          0.05000049	          0.05000019	          0.05930875	          0.05930877	
          0.56969333	         -2.92198170	          2.39770410	         -5.53464706	          0.71507689	          0.91732093	          0.00105973	         26.72077074	          4.30533499	         -1.57121669	        -15.93700141	         -1.33056409	          5.58083407	         -9.83154657	        -12.64767964	          3.55506443	          0.81205556	         -7.46065847	          7.94086915	         -3.02230276	          1.81369308	          8.68368206	          1.86769423	         -1.35923654	         -0.82091143	          2.22872788	         -7.41526229	        -13.45909919	          5.69752504	          4.20766361	        -13.45073893	         16.67782189	         16.20592949	         35.65141704	         86.51662706	         86.51662706	          0.28144483	          0.22640920	          0.23433057	          0.14945580	          0.19456937	          0.14628478	          0.15237786	          0.06748147	          0.06700953	          0.07786443	          0.05000579	          0.08347321	          0.18229436	          0.16480660	          0.12710843	          0.12452164	          0.05000141	          0.05004976	          0.09372065	          0.17191898	          0.14311490	          0.09443307	          0.05000021	          0.05000029	          0.37351005	          0.12135409	          0.12310607	          0.05000077	          0.11841796	          0.11793791	          0.09943625	          0.05000017	          0.05000043	          0.05000004	          0.05000024	          0.05936686	          0.05912766	          0.65588754	          0.39928114	          0.22954877	          0.45055018	          0.36315031	          0.08875538	          0.06497177	          0.11700154	          0.07035170	          0.28122277	          0.07035533	          0.05003196	          0.35699784	          0.13474227	          0.07584259	          0.05000626	          0.05000036	          0.05000031	          0.05000060	          0.07031079	          0.11539927	          0.05000159	          0.05000130	          0.05000166	          0.05000257	          0.30955155	          0.05012119	          0.05000114	          0.05000230	          0.05000139	          0.05000099	          0.27523046	          0.57683997	          0.05000019	          0.05000161	          0.05000279	          0.14547815	          0.11160585	          0.07669728	          0.13926727	          0.19922009	          0.26934343	          0.26411453	          0.19721491	          0.38789657	          0.45703666	          0.05000003	          0.11415807	          0.19578810	          0.05000026	          0.05000007	          0.05000026	          0.05231567	          0.05000006	          0.05000011	
          0.58086379	         -2.91649195	          2.48394199	         -5.73335844	          0.73201741	          0.91682959	          0.00084386	         25.91711175	          4.53287041	         -1.28577162	        -15.65487431	         -1.59170438	          5.39318736	        -10.21432914	        -14.74494326	          2.89438640	         -0.01472466	         -7.72383325	          8.57868211	         -3.05650262	          0.78106914	          8.78576747	          3.69537973	         -1.15940904	         -1.03112950	          2.26762258	         -8.20607968	        -13.45894375	          5.63916472	          3.83631040	        -13.45429590	         16.85269644	         15.89787424	         36.67527180	         86.51662706	         86.51662706	          0.36566499	          0.31040291	          0.32486994	          0.13673127	          0.16406440	          0.18474907	          0.12846220	          0.07716422	          0.06858790	          0.06564357	          0.05000085	          0.07037194	          0.15368346	          0.13894298	          0.15035828	          0.15339008	          0.05000074	          0.05001285	          0.07974541	          0.22400808	          0.17950687	          0.14050116	          0.05000024	          0.05000023	          0.31488642	          0.10230738	          0.13743672	          0.05000019	          0.14876920	          0.15364953	          0.11778614	          0.05000008	          0.05000018	          0.05000003	          0.05000008	          0.05005328	          0.05000131	          0.71392741	          0.36497340	          0.20506027	          0.60122245	          0.37730866	          0.07482572	          0.08292963	          0.09863811	          0.05930977	          0.29971672	          0.05931287	          0.05000029	          0.30096770	          0.11359416	          0.06393893	          0.05000738	          0.05000063	          0.05000059	          0.05000033	          0.05927743	          0.15289497	          0.05002277	          0.05001347	          0.05002471	          0.05000796	          0.29149807	          0.05013924	          0.05000327	          0.05001357	          0.05000659	          0.05000462	          0.23203225	          0.53792344	          0.05000080	          0.05000205	          0.05000034	          0.12264490	          0.09430971	          0.11740992	          0.11741002	          0.16795179	          0.22706904	          0.22266081	          0.16626142	          0.32701993	          0.38906789	          0.05000430	          0.11638477	          0.20174196	          0.05000075	          0.05000014	          0.05000051	          0.06514409	          0.05000005	          0.05000008	
          0.59203424	         -2.91010080	          2.56264586	         -5.89930535	          0.74886857	          0.91656096	          0.00060489	         25.14984173	          4.76716451	         -0.99829657	        -15.24360951	         -1.84268397	          5.21846595	        -10.65757627	        -16.97926239	          2.27661546	         -1.07451607	         -7.98223715	          9.19275222	         -3.08937373	         -0.40433780	          8.88498347	          5.85419872	         -0.97362114	         -1.24339068	          2.29905712	         -8.94583299	        -13.45728519	          5.60837824	          3.46421707	        -13.45879967	         17.02329841	         15.61392980	         37.60824300	         86.51662706	         86.51662706	          0.43711418	          0.38632438	          0.40221632	          0.17463883	          0.13876468	          0.22087951	          0.11093938	          0.08986441	          0.07380373	          0.05534118	          0.05000081	          0.05932702	          0.12958792	          0.18149590	          0.20387905	          0.18303242	          0.05000053	          0.05001804	          0.10059214	          0.27409299	          0.21606323	          0.18344218	          0.05000019	          0.05000019	          0.26546399	          0.08625012	          0.14671932	          0.05000015	          0.20897704	          0.21612402	          0.16671394	          0.05000008	          0.05000019	          0.05000003	          0.05000018	          0.13059114	          0.09069823	          0.79049441	          0.30768967	          0.17287544	          0.50686203	          0.36708435	          0.06309554	          0.09236039	          0.08315667	          0.05000093	          0.25271024	          0.05000357	          0.05000010	          0.25963289	          0.09576532	          0.05390362	          0.05000501	          0.05000038	          0.05000034	          0.05000025	          0.05000347	          0.17292254	          0.13087151	          0.05000337	          0.05001132	          0.05977540	          0.30805325	          0.05959385	          0.05000088	          0.05000259	          0.05000166	          0.05000116	          0.19561406	          0.49159591	          0.05000016	          0.05000058	          0.05000018	          0.10339539	          0.09898224	          0.09898300	          0.09898290	          0.14159116	          0.19142976	          0.18771341	          0.14016617	          0.27569331	          0.32800261	          0.11481324	          0.15082830	          0.18567284	          0.06319387	          0.05000015	          0.05000027	          0.08885403	          0.05000003	          0.05000008	
